<svg xmlns="http://www.w3.org/2000/svg" version="1.1" xmlns:xlink="http://www.w3.org/1999/xlink" xmlns:svgjs="http://svgjs.com/svgjs" width="1440" height="560" preserveAspectRatio="none" viewBox="0 0 1440 560">
    <g mask="url(&quot;#SvgjsMask1001&quot;)" fill="none">
        <rect width="1440" height="560" x="0" y="0" fill="rgba(36, 52, 116, 1)"></rect>
        <path d="M0,426.049C78.324,415.047,139.613,362.496,210.767,327.959C293.497,287.804,419.707,292.545,452.249,206.535C485.42,118.862,382.526,38.414,354.114,-50.914C331.66,-121.512,336.595,-196.538,303.041,-262.586C261.823,-343.719,220.589,-433.33,139.177,-473.995C53.396,-516.843,-53.608,-521.204,-142.439,-485.102C-228.634,-450.071,-282.368,-365.276,-327.933,-284.155C-367.204,-214.238,-369.759,-134.13,-383.911,-55.198C-398.642,26.966,-436.136,108.352,-412.668,188.459C-387.821,273.273,-329.187,348.948,-252.595,393.045C-177.485,436.289,-85.826,438.105,0,426.049" fill="#202e66"></path>
        <path d="M1440 985.576C1518.333 992.319 1576.6109999999999 917.727 1645.218 879.326 1719.135 837.953 1824.546 828.732 1858.7060000000001 751.217 1892.904 673.615 1837.922 586.738 1809.343 506.896 1785.766 441.027 1752.965 381.38599999999997 1707.343 328.346 1661.577 275.139 1612.87 220.36700000000002 1545.62 200.29199999999997 1478.243 180.17899999999997 1409.8 212.387 1339.762 218.62 1249.132 226.68599999999998 1143.683 184.56099999999998 1073.379 242.32100000000003 1003.809 299.478 1003.057 406.874 1001.058 496.89 999.219 579.678 1013.607 665.564 1062.4940000000001 732.4010000000001 1107.6 794.069 1192.842 803.292 1256.296 845.848 1321.513 889.586 1361.764 978.842 1440 985.576" fill="#283a82"></path>
    </g>
    <defs>
        <mask id="SvgjsMask1001">
            <rect width="1440" height="560" fill="#ffffff"></rect>
        </mask>
    </defs>
</svg>